<svg width="1920" height="1437" viewBox="0 0 1920 1437" fill="none" xmlns="http://www.w3.org/2000/svg">
<path d="M1920 0H0V1437H1920V0Z" fill="#EDF2FF"/>
<path d="M1210 1437C1234.94 1323.95 1259.7 1210.89 1315.77 1107.92C1371.84 1004.95 1459.04 912.065 1565 856.864C1670.96 801.841 1795.48 784.502 1920 767.163V1437H1210Z" fill="#BAC8FF"/>
<path d="M653 0C637.477 96.2032 621.954 192.406 565.554 268.603C508.981 344.799 411.531 400.988 310.46 442.421C209.388 483.854 104.694 510.529 0 537.205V0H653Z" fill="#BAC8FF"/>
<path d="M224 276.713C228.418 276.713 232 273.082 232 268.603C232 264.123 228.418 260.492 224 260.492C219.582 260.492 216 264.123 216 268.603C216 273.082 219.582 276.713 224 276.713Z" fill="white"/>
<path d="M224 230.912C230.075 230.912 235 226 235 219.939C235 213.879 230.075 208.966 224 208.966C217.925 208.966 213 213.879 213 219.939C213 226 217.925 230.912 224 230.912Z" fill="white"/>
<path d="M175 295.797C178.314 295.797 181 293.02 181 289.595C181 286.169 178.314 283.392 175 283.392C171.686 283.392 169 286.169 169 289.595C169 293.02 171.686 295.797 175 295.797Z" fill="white"/>
<path d="M246 293.888C251.523 293.888 256 289.403 256 283.87C256 278.336 251.523 273.851 246 273.851C240.477 273.851 236 278.336 236 283.87C236 289.403 240.477 293.888 246 293.888Z" fill="white"/>
<path d="M1811 656.478C1813.76 656.478 1816 654.556 1816 652.184C1816 649.813 1813.76 647.89 1811 647.89C1808.24 647.89 1806 649.813 1806 652.184C1806 654.556 1808.24 656.478 1811 656.478Z" fill="white"/>
<path d="M1845 684.149C1847.76 684.149 1850 682.227 1850 679.856C1850 677.484 1847.76 675.562 1845 675.562C1842.24 675.562 1840 677.484 1840 679.856C1840 682.227 1842.24 684.149 1845 684.149Z" fill="white"/>
<path d="M1881 676.516C1884.31 676.516 1887 673.953 1887 670.791C1887 667.629 1884.31 665.066 1881 665.066C1877.69 665.066 1875 667.629 1875 670.791C1875 673.953 1877.69 676.516 1881 676.516Z" fill="white"/>
<path d="M1834 718.5C1840.63 718.5 1846 713.587 1846 707.527C1846 701.467 1840.63 696.554 1834 696.554C1827.37 696.554 1822 701.467 1822 707.527C1822 713.587 1827.37 718.5 1834 718.5Z" fill="white"/>
<path d="M1830 634.532C1832.76 634.532 1835 632.396 1835 629.761C1835 627.126 1832.76 624.99 1830 624.99C1827.24 624.99 1825 627.126 1825 629.761C1825 632.396 1827.24 634.532 1830 634.532Z" fill="white"/>
<path d="M1680 1199.41C1682.76 1199.41 1685 1197.49 1685 1195.11C1685 1192.74 1682.76 1190.82 1680 1190.82C1677.24 1190.82 1675 1192.74 1675 1195.11C1675 1197.49 1677.24 1199.41 1680 1199.41Z" fill="white"/>
<path d="M1714 1227.08C1716.76 1227.08 1719 1225.16 1719 1222.79C1719 1220.41 1716.76 1218.49 1714 1218.49C1711.24 1218.49 1709 1220.41 1709 1222.79C1709 1225.16 1711.24 1227.08 1714 1227.08Z" fill="white"/>
<path d="M1674 1144.07C1677.31 1144.07 1680 1141.5 1680 1138.34C1680 1135.18 1677.31 1132.62 1674 1132.62C1670.69 1132.62 1668 1135.18 1668 1138.34C1668 1141.5 1670.69 1144.07 1674 1144.07Z" fill="white"/>
<path d="M1668 1266.11C1674.63 1266.11 1680 1261.2 1680 1255.14C1680 1249.08 1674.63 1244.16 1668 1244.16C1661.37 1244.16 1656 1249.08 1656 1255.14C1656 1261.2 1661.37 1266.11 1668 1266.11Z" fill="white"/>
<path d="M1699 1182.46C1701.76 1182.46 1704 1180.33 1704 1177.69C1704 1175.06 1701.76 1172.92 1699 1172.92C1696.24 1172.92 1694 1175.06 1694 1177.69C1694 1180.33 1696.24 1182.46 1699 1182.46Z" fill="white"/>
</svg>
