<svg id="visual" viewBox="0 0 900 600" width="900" height="600" xmlns="http://www.w3.org/2000/svg" xmlns:xlink="http://www.w3.org/1999/xlink" version="1.1"><rect x="0" y="0" width="900" height="600" fill="#EDF2FF"></rect><defs><linearGradient id="grad1_0" x1="33.3%" y1="100%" x2="100%" y2="0%"><stop offset="20%" stop-color="#edf2ff" stop-opacity="1"></stop><stop offset="80%" stop-color="#edf2ff" stop-opacity="1"></stop></linearGradient></defs><defs><linearGradient id="grad2_0" x1="0%" y1="100%" x2="66.7%" y2="0%"><stop offset="20%" stop-color="#edf2ff" stop-opacity="1"></stop><stop offset="80%" stop-color="#edf2ff" stop-opacity="1"></stop></linearGradient></defs><g transform="translate(900, 600)"><path d="M-351.5 0C-342.3 -61.4 -333 -122.7 -304.4 -175.8C-275.9 -228.8 -228 -273.5 -174 -301.4C-120 -329.3 -60 -340.4 0 -351.5L0 0Z" fill="#BAC8FF"></path></g><g transform="translate(0, 0)"><path d="M351.5 0C342.2 61.3 332.9 122.5 304.4 175.8C276 229 228.4 274.3 174.5 302.2C120.6 330.2 60.3 340.9 0 351.5L0 0Z" fill="#BAC8FF"></path></g></svg>